{"title":"Fear of the Dark 2003 DVDRip Xvid BigPerm LKRG","uid":6269501,"size":697474096,"categoryP":"video","categoryS":"movies","magnet":"?xt=urn:btih:9ce98fdac4d713b6231b3120a9445e06989d0eba&amp;dn=Fear+of+the+Dark+2003+DVDRip+Xvid+BigPerm+LKRG&amp;tr=udp%3A%2F%2Ftracker.openbittorrent.com%3A80&amp;tr=udp%3A%2F%2Fopen.demonii.com%3A1337&amp;tr=udp%3A%2F%2Ftracker.coppersurfer.tk%3A6969&amp;tr=udp%3A%2F%2Fexodus.desync.com%3A6969","seeders":1,"leechers":0,"uploader":".BONE.","files":2,"time":1301027722,"description":"Plot\n\nTwelve year old Ryan Billings has been diagnosed with an acute fear of the dark. He\nspends each night lying awake in torment...\n &lt;a href=&quot;\nhttp://www.imdb.com/title/tt0308252/&quot; rel=&quot;nofollow&quot; target=&quot;_NEW&quot;&gt;\nhttp://www.imdb.com/title/tt0308252/&lt;/a&gt;\n\n\nGeneral\nComplete name : Fear of the Dark 2003 DVDRip Xvid BigPerm LKRG\\FotD_LRG.avi\nFormat : AVI\nFormat/Info : Audio Video Interleave\nFile size : 665 MiB\nDuration : 1h 25mn\nOverall bit rate : 1 085 Kbps\n\nVideo\nID : 0\nFormat : MPEG-4 Visual\nFormat profile : Advanced Simple@L5\nFormat settings, BVOP : Yes\nFormat settings, QPel : No\nFormat settings, GMC : No warppoints\nFormat settings, Matrix : Default (H.263)\nCodec ID : XVID\nCodec ID/Hint : XviD\nDuration : 1h 25mn\nBit rate : 886 Kbps\nWidth : 704 pixels\nHeight : 396 pixels\nDisplay aspect ratio : 16:9\nFrame rate : 29.970 fps\nColor space : YUV\nChroma subsampling : 4:2:0\nBit depth : 8 bits\nScan type : Progressive\nCompression mode : Lossy\nBits/(Pixel*Frame) : 0.106\nStream size : 544 MiB (82%)\nWriting library : XviD 1.2.1 (UTC 2008-12-04)\n\nAudio\nID : 1\nFormat : AC-3\nFormat/Info : Audio Coding 3\nMode extension : CM (complete main)\nCodec ID : 2000\nDuration : 1h 25mn\nBit rate mode : Constant\nBit rate : 192 Kbps\nChannel(s) : 2 channels\nChannel positions : Front: L R\nSampling rate : 48.0 KHz\nBit depth : 16 bits\nCompression mode : Lossy\nVideo delay : 33ms\nStream size : 118 MiB (18%)\nAlignment : Split accross interleaves\nInterleave, duration : 500 ms (14.98 video frames)\nInterleave, preload duration : 500 ms\nLanguge : English\n &lt;a href=&quot;\nhttp://www.shotpix.com/images/74319977910316682875.png&quot; rel=&quot;nofollow&quot; target=&quot;_NEW&quot;&gt;\nhttp://www.shotpix.com/images/74319977910316682875.png&lt;/a&gt;\n &lt;a href=&quot;\nhttp://www.shotpix.com/images/10867457903356706202.png&quot; rel=&quot;nofollow&quot; target=&quot;_NEW&quot;&gt;\nhttp://www.shotpix.com/images/10867457903356706202.png&lt;/a&gt;\n &lt;a href=&quot;\nhttp://www.shotpix.com/images/47917012410191865833.png&quot; rel=&quot;nofollow&quot; target=&quot;_NEW&quot;&gt;\nhttp://www.shotpix.com/images/47917012410191865833.png&lt;/a&gt;\n &lt;a href=&quot;\nhttp://www.shotpix.com/images/70151356994135200219.png&quot; rel=&quot;nofollow&quot; target=&quot;_NEW&quot;&gt;\nhttp://www.shotpix.com/images/70151356994135200219.png&lt;/a&gt;","torrent":{"xt":"urn:btih:9ce98fdac4d713b6231b3120a9445e06989d0eba","amp;dn":"Fear+of+the+Dark+2003+DVDRip+Xvid+BigPerm+LKRG","amp;tr":["udp%3A%2F%2Ftracker.openbittorrent.com%3A80","udp%3A%2F%2Fopen.demonii.com%3A1337","udp%3A%2F%2Ftracker.coppersurfer.tk%3A6969","udp%3A%2F%2Fexodus.desync.com%3A6969"],"infoHash":"9ce98fdac4d713b6231b3120a9445e06989d0eba","infoHashBuffer":{"type":"Buffer","data":[156,233,143,218,196,215,19,182,35,27,49,32,169,68,94,6,152,157,14,186]},"announce":[],"urlList":[]}}